<svg width="432" height="432" viewBox="0 0 432 432" fill="none" xmlns="http://www.w3.org/2000/svg">
<path d="M350.12 287.266C336.947 287.266 326.227 297.986 326.227 311.16C326.227 324.333 336.947 335.053 350.12 335.053C363.294 335.053 374.014 324.333 374.014 311.16C374.014 297.986 363.294 287.266 350.12 287.266ZM350.12 321.4C344.473 321.4 339.88 316.807 339.88 311.16C339.88 305.512 344.473 300.92 350.12 300.92C355.768 300.92 360.36 305.512 360.36 311.16C360.36 316.807 355.768 321.4 350.12 321.4Z" fill="black"/>
<path d="M359.534 62.8124C360.867 64.1454 362.615 64.8127 364.361 64.8127C366.107 64.8127 367.854 64.1454 369.187 62.8124L374.014 57.986L378.84 62.8124C380.173 64.1454 381.921 64.8127 383.667 64.8127C385.413 64.8127 387.16 64.1454 388.493 62.8124C391.159 60.1466 391.159 55.8254 388.493 53.1595L383.667 48.3331L388.493 43.5066C391.159 40.8408 391.159 36.5195 388.493 33.8537C385.827 31.1879 381.506 31.1879 378.84 33.8537L374.014 38.6802L369.187 33.8537C366.521 31.1879 362.2 31.1879 359.534 33.8537C356.869 36.5195 356.869 40.8408 359.534 43.5066L364.361 48.3331L359.534 53.1595C356.867 55.8271 356.867 60.1466 359.534 62.8124Z" fill="black"/>
<path d="M347.266 114.326C351.298 114.326 354.564 111.058 354.564 107.027C354.564 102.996 351.298 99.7294 347.266 99.7294C343.235 99.7294 339.969 102.998 339.969 107.027C339.969 111.058 343.235 114.326 347.266 114.326Z" fill="black"/>
<path d="M223.827 376.013C223.827 379.783 226.88 382.84 230.653 382.84H264.787C268.56 382.84 271.613 379.783 271.613 376.013V341.88C271.613 338.11 268.56 335.053 264.787 335.053H230.653C226.88 335.053 223.827 338.11 223.827 341.88V376.013ZM237.48 348.706H257.96V369.186H237.48V348.706Z" fill="black"/>
<path d="M397.907 212.173H232.661C232.328 212.173 229.747 212.159 228.814 212.426L167.374 229.612C164.421 230.438 162.38 233.131 162.387 236.198C162.394 239.265 164.443 241.951 167.398 242.765L228.841 259.712C229.66 259.939 232.215 259.96 232.661 259.96H285.267V396.493H25.8535V137.08H285.267V191.693C285.267 195.463 288.32 198.52 292.094 198.52C295.867 198.52 298.92 195.463 298.92 191.693V75.6398C298.92 71.8698 295.867 68.8131 292.094 68.8131H250.739C248.626 49.2138 237.583 34.6798 223.827 34.6798C210.071 34.6798 199.027 49.2138 196.914 68.8131H182.473C180.36 49.2138 169.316 34.6798 155.56 34.6798C141.804 34.6798 130.761 49.2138 128.648 68.8131H114.206C112.093 49.2138 101.049 34.6798 87.2935 34.6798C73.5378 34.6798 62.494 49.2138 60.3811 68.8131H19.0269C15.2568 68.8131 12.2002 71.8698 12.2002 75.6398V403.32C12.2002 407.09 15.2568 410.146 19.0269 410.146H292.094C295.867 410.146 298.92 407.09 298.92 403.32V259.96H397.907C411.081 259.96 421.8 249.24 421.8 236.066C421.8 222.893 411.081 212.173 397.907 212.173V212.173ZM223.827 48.3331C229.286 48.3331 235.244 56.7538 236.955 68.8131H210.697C212.409 56.7538 218.367 48.3331 223.827 48.3331V48.3331ZM155.56 48.3331C161.02 48.3331 166.978 56.7538 168.688 68.8131H142.431C144.143 56.7538 150.101 48.3331 155.56 48.3331ZM87.2935 48.3331C92.7532 48.3331 98.7111 56.7538 100.421 68.8131H74.1658C75.8759 56.7538 81.8339 48.3331 87.2935 48.3331ZM60.3811 82.4665C62.494 102.066 73.5378 116.6 87.2935 116.6C91.0636 116.6 94.1202 113.543 94.1202 109.773C94.1202 106.003 91.0636 102.946 87.2935 102.946C81.8339 102.946 75.8759 94.5258 74.1658 82.4665H128.648C130.761 102.066 141.804 116.6 155.56 116.6C159.33 116.6 162.387 113.543 162.387 109.773C162.387 106.003 159.33 102.946 155.56 102.946C150.101 102.946 144.143 94.5258 142.433 82.4665H196.914C199.027 102.066 210.071 116.6 223.827 116.6C227.6 116.6 230.654 113.543 230.654 109.773C230.654 106.003 227.6 102.946 223.827 102.946C218.367 102.946 212.409 94.5258 210.699 82.4665H285.267V123.426H25.8535V82.4665H60.3811ZM223.827 227.999V244.168L194.72 236.14L223.827 227.999ZM397.907 246.306H237.48V225.826H397.907C403.554 225.826 408.147 230.419 408.147 236.066C408.147 241.714 403.554 246.306 397.907 246.306Z" fill="black"/>
<path d="M87.2935 157.56C87.2935 153.79 84.2369 150.733 80.4668 150.733H46.3335C42.5635 150.733 39.5068 153.79 39.5068 157.56V191.693C39.5068 195.463 42.5635 198.52 46.3335 198.52H80.4668C84.2369 198.52 87.2935 195.463 87.2935 191.693V157.56ZM73.6402 184.866H53.1602V164.386H73.6402V184.866Z" fill="black"/>
<path d="M216.294 157.56C216.294 153.79 213.237 150.733 209.467 150.733H175.334C171.563 150.733 168.507 153.79 168.507 157.56V191.693C168.507 195.463 171.563 198.52 175.334 198.52H209.467C213.237 198.52 216.294 195.463 216.294 191.693V157.56ZM202.64 184.866H182.16V164.386H202.64V184.866Z" fill="black"/>
<path d="M87.2935 280.44C87.2935 276.67 84.2369 273.613 80.4668 273.613H46.3335C42.5635 273.613 39.5068 276.67 39.5068 280.44V314.573C39.5068 318.343 42.5635 321.4 46.3335 321.4H80.4668C84.2369 321.4 87.2935 318.343 87.2935 314.573V280.44ZM73.6402 307.746H53.1602V287.266H73.6402V307.746Z" fill="black"/>
<path d="M141.907 335.053H107.773C104.003 335.053 100.947 338.11 100.947 341.88V376.013C100.947 379.783 104.003 382.84 107.773 382.84H141.907C145.677 382.84 148.733 379.783 148.733 376.013V341.88C148.733 338.11 145.677 335.053 141.907 335.053ZM135.08 369.186H114.6V348.706H135.08V369.186Z" fill="black"/>
</svg>
